<?xml version="1.0" encoding="UTF-8"?>
<svg id="Layer_2" data-name="Layer 2" xmlns="http://www.w3.org/2000/svg" viewBox="0 0 124.84 42.15">
  <defs>
    <style>
      .cls-1 {
        fill: #fff;
      }

      .cls-2 {
        fill: #656768;
      }

      .cls-3 {
        stroke-miterlimit: 10;
        stroke-width: 2px;
      }

      .cls-3, .cls-4 {
        fill: none;
        stroke: #fff;
        stroke-linecap: round;
      }

      .cls-4 {
        stroke-linejoin: round;
        stroke-width: 3px;
      }
    </style>
  </defs>
  <g id="Layer_1-2" data-name="Layer 1">
    <g>
      <rect class="cls-2" x="21.85" y="32.91" width="2.76" height="4.19" rx="1.38" ry="1.38"/>
      <rect class="cls-2" x="40.42" y="32.91" width="2.76" height="4.19" rx="1.38" ry="1.38"/>
      <path class="cls-3" d="m1,1.24c.47-.12,3.64-.89,6.55,1.14,2.38,1.67,3.02,4.12,3.15,4.73,1.81,7.09,3.63,14.17,5.44,21.26.04.35.31,2.61,2.36,4.05,1.75,1.23,3.61,1.02,4.03.96h20.23c.6-.04,2.39-.25,4.03-1.66,1.7-1.46,2.16-3.28,2.28-3.85"/>
      <polyline class="cls-4" points="18.45 20.87 32.64 8.82 47.09 20.87"/>
      <path class="cls-1" d="m32.77,12.5l-11.03,8.93v11.43l21.84.41v-11.84l-10.81-8.93Zm2.72,19.14h-5.61v-7.19h5.61v7.19Z"/>
      <polygon class="cls-1" points="38.73 7.46 44.34 7.46 44.34 17.8 38.73 13.16 38.73 7.46"/>
      <circle class="cls-1" cx="23.23" cy="38.73" r="3.42"/>
      <circle class="cls-1" cx="41.8" cy="38.73" r="3.42"/>
      <g>
        <path class="cls-1" d="m59.28,34.96c.19-2.17.32-4.04.41-5.61.13-2.25.28-5.42.45-9.53.11-2.81.17-4.8.17-5.98v-1.54c1.37.02,2.28.03,2.71.03.29,0,1.14-.01,2.56-.03l-.52,8.96-.45,10.74-.05,2.96-2.57-.03c-.31,0-1.21.01-2.7.03Zm6.03-11.99l3.77-4.63,3.44-4.36c.24-.32.65-.88,1.23-1.68l2.99.03c.12,0,1.07-.01,2.85-.03l-7.64,8.97-1.3,1.61,1.05,1.5c.16.21,1.25,1.65,3.29,4.32l4.84,6.26-2.96-.03c-.52,0-1.6.01-3.23.03l-1.06-1.66c-.2-.32-.55-.85-1.06-1.58l-4.52-6.45-1.68-2.31Z"/>
        <path class="cls-1" d="m83.07,21.78c.16-.8.25-1.36.29-1.68.04-.32.11-.81.21-1.46,1.5-.35,2.83-.6,3.98-.75,1.15-.14,2.26-.22,3.34-.22,1.22,0,2.33.14,3.35.42s1.82.73,2.39,1.35c.58.62.86,1.51.86,2.67,0,.63-.09,2.24-.26,4.82-.18,2.58-.28,5.25-.31,8.01-.84-.02-1.62-.03-2.33-.03s-1.47.01-2.38.03c.15-1.34.26-2.89.35-4.65l.22-4.13c-.42.28-.74.47-.96.58-.22.11-.47.21-.75.31-.28.09-.76.24-1.46.43-.7.19-1.26.36-1.68.51-.42.14-.8.31-1.14.49s-.62.39-.86.61c-.23.23-.4.46-.51.71-.11.25-.16.52-.16.81,0,.46.14.87.41,1.2.27.34.61.57,1.02.71s.89.2,1.44.2c.35,0,.73-.03,1.12-.08.39-.06.92-.19,1.59-.42-.23.63-.5,1.57-.81,2.82-.79.13-1.41.22-1.88.25s-.9.05-1.29.05c-1.39,0-2.54-.19-3.44-.56s-1.56-.97-1.98-1.79c-.43-.82-.64-1.64-.64-2.47,0-.48.08-.95.25-1.41s.41-.89.73-1.28c.32-.39.74-.76,1.25-1.12.51-.36,1.25-.71,2.21-1.05.96-.34,2.24-.68,3.82-1.02.42-.09.86-.2,1.31-.32.45-.13.82-.25,1.09-.37.27-.12.51-.28.71-.47.2-.19.35-.4.44-.61.09-.21.14-.43.14-.65,0-.43-.14-.8-.42-1.1-.28-.3-.65-.51-1.1-.62-.45-.12-.94-.17-1.49-.17-2.02,0-4.24.48-6.68,1.44Z"/>
        <path class="cls-1" d="m101.05,34.96l.48-7.89.13-4.58c.02-.94.03-1.89.03-2.84,0-.17-.01-.69-.03-1.58,1.03.02,1.79.03,2.27.03.56,0,1.31-.01,2.24-.03l-.08,2.34c.42-.6.78-1.04,1.08-1.34.3-.29.63-.54,1-.76.37-.21.78-.37,1.24-.48.45-.11.92-.17,1.39-.17.44,0,.9.06,1.36.17,0,1.03.05,2.34.15,3.92-.65-.18-1.25-.27-1.78-.27-.64,0-1.21.1-1.7.29-.49.19-.94.49-1.33.88-.39.39-.72.88-.97,1.45-.21.46-.37,1.07-.46,1.81-.09.58-.16,1.56-.22,2.96-.06,1.39-.09,2.77-.09,4.12,0,.52.02,1.17.05,1.96-.84-.02-1.61-.03-2.31-.03s-1.51.01-2.46.03Z"/>
        <path class="cls-1" d="m124.62,31.49c-.13.61-.34,1.74-.63,3.39-.93.21-1.66.34-2.19.4-.53.06-1.03.08-1.49.08-.82,0-1.55-.08-2.2-.23-.65-.16-1.18-.43-1.6-.82-.42-.39-.71-.85-.85-1.38-.15-.53-.22-1.07-.22-1.64,0-.14,0-.34.02-.58.01-.24.06-1.03.13-2.36l.38-6.91h-2.39c.05-.66.1-1.73.15-3.2h2.5c.07-.64.13-1.73.2-3.27l1.96-.38c.41-.08,1.2-.26,2.38-.55-.08,1.49-.12,2.89-.14,4.2h4.22c-.08,1.49-.12,2.56-.12,3.2h-4.23c-.23,4.5-.35,7.11-.35,7.82s.08,1.22.22,1.59c.15.38.39.65.72.81s.69.25,1.06.25c.28,0,.57-.02.87-.07.3-.04.84-.17,1.6-.37Z"/>
      </g>
    </g>
  </g>
</svg>